<?xml version="1.0" encoding="UTF-8"?><svg id="Layer_2" xmlns="http://www.w3.org/2000/svg" xmlns:xlink="http://www.w3.org/1999/xlink" viewBox="0 0 33.51 20"><defs><style>.cls-1{fill:url(#linear-gradient-2);}.cls-2{fill:url(#linear-gradient-3);}.cls-3{fill:url(#linear-gradient);}</style><linearGradient id="linear-gradient" x1="10.35" y1="17.15" x2="23.83" y2="17.15" gradientUnits="userSpaceOnUse"><stop offset="0" stop-color="#1449ef"/><stop offset=".86" stop-color="#0c196e"/></linearGradient><linearGradient id="linear-gradient-2" x1="11.57" y1=".27" x2="11.57" y2="24.51" gradientUnits="userSpaceOnUse"><stop offset="0" stop-color="#1449ef"/><stop offset=".5" stop-color="#2391e0"/><stop offset=".86" stop-color="#0c196e"/></linearGradient><linearGradient id="linear-gradient-3" x1="27.96" y1="19.85" x2="18.42" y2="4.56" xlink:href="#linear-gradient"/></defs><g id="Layer_1-2"><g><path class="cls-3" d="M21.34,14.35c-2.21,0-4.39,0-6.58,0-.25,0-.41,.06-.56,.27-1.22,1.68-2.45,3.36-3.67,5.03-.07,.09-.12,.2-.18,.3h12.17c.68-.97,.8-2.67-1.18-5.6Z"/><path class="cls-1" d="M23.14,5.11c-.56-.81-1.13-1.61-1.69-2.42-.3-.43-.66-.84-1.02-1.23-1.76-1.93-5.11-1.96-6.9-.03-.37,.4-.74,.81-1.06,1.25C8.84,7.69,5.23,12.72,1.62,17.74c-.52,.72-1.04,1.45-1.62,2.25H.57c2.32,0,4.63,0,6.95,0,.39,0,.63-.11,.86-.43,2.72-3.8,5.45-7.58,8.18-11.37,.09-.12,.18-.23,.29-.37,0,0,0,0,0,0,2.88-3.96,5.22-3.34,6.28-2.71Z"/><path class="cls-2" d="M33.29,19.62c-3.38-4.84-6.77-9.68-10.16-14.51-1.06-.62-3.4-1.25-6.28,2.71,1.52,2.21,3.02,4.37,4.5,6.53,0,0-.01,0-.02,0,1.98,2.93,1.86,4.62,1.18,5.6h10.98c-.09-.14-.15-.24-.22-.33Z"/></g></g></svg>