<?xml version="1.0" encoding="UTF-8"?>
<svg id="Layer_2" xmlns="http://www.w3.org/2000/svg" viewBox="0 0 41.61 39.96">
    <defs></defs>
    <g id="Layer_1-2">
        <g>
        <g>
            <rect fillOpacity="0.5" x="34.04" y="6.52" width="1.45" height="10.14" />
        </g>
        <g>
            <rect fillOpacity="0.5" x="7.24" y="19.55" width="13.04" height="1.45" />
        </g>
        <g>
            <path
            fillOpacity="0.5"
            d="M5.79,21v-1.45H2.17c-.4,0-.72-.32-.72-.72V2.17c0-.4,.32-.72,.72-.72h31.14c.4,0,.72,.32,.72,.72v2.9h1.45V2.17c0-.15-.02-.3-.04-.44-.2-.99-1.08-1.73-2.13-1.73H2.17C.97,0,0,.97,0,2.17V18.83c0,1.05,.75,1.93,1.73,2.13,.14,.03,.29,.04,.44,.04h3.62Z"
            />
        </g>
        <path d="M38.38,6.52c.4,0,.72,.32,.72,.72v9.41h1.45V7.24c0-1.2-.97-2.17-2.17-2.17h-2.9v1.45h2.9Z" />
        <path d="M7.97,24.62c-.4,0-.72-.32-.72-.72v-2.9h-1.45v2.9c0,1.2,.97,2.17,2.17,2.17h12.31v-1.45H7.97Z" />
        <path d="M7.24,7.24c0-.4,.32-.72,.72-.72h26.07v-1.45H7.97c-1.2,0-2.17,.97-2.17,2.17v12.31h1.45V7.24Z" />
        <rect x="34.04" y="5.07" width="1.45" height="1.45" />
        <rect x="5.79" y="19.55" width="1.45" height="1.45" />
        </g>
    </g>
</svg>