<?xml version="1.0" encoding="UTF-8"?><svg id="Layer_2" xmlns="http://www.w3.org/2000/svg" xmlns:xlink="http://www.w3.org/1999/xlink" viewBox="0 0 23.7 20"><defs><style>.cls-1{fill:url(#linear-gradient-2);}.cls-2{fill:url(#linear-gradient-3);}.cls-3{fill:url(#linear-gradient);}.cls-4{fill:url(#linear-gradient-4);}</style><linearGradient id="linear-gradient" x1="11.59" y1="12.64" x2="7.98" y2="2.6" gradientUnits="userSpaceOnUse"><stop offset="0" stop-color="#ef3411"/><stop offset=".72" stop-color="#6e220b"/></linearGradient><linearGradient id="linear-gradient-2" x1="19.75" y1="-11.1" x2="3.67" y2="11.46" gradientUnits="userSpaceOnUse"><stop offset=".29" stop-color="#ef3411"/><stop offset=".41" stop-color="#e52a1a"/><stop offset=".57" stop-color="#e02520"/><stop offset=".66" stop-color="#ba2419"/><stop offset=".75" stop-color="#992312"/><stop offset=".85" stop-color="#81220e"/><stop offset=".93" stop-color="#72220b"/><stop offset="1" stop-color="#6e220b"/></linearGradient><linearGradient id="linear-gradient-3" x1="6.97" y1="22.52" x2=".74" y2="11.23" gradientUnits="userSpaceOnUse"><stop offset="0" stop-color="#ef3411"/><stop offset=".86" stop-color="#6e220b"/></linearGradient><linearGradient id="linear-gradient-4" x1="25.36" y1="17.11" x2="2.95" y2="17.11" xlink:href="#linear-gradient-3"/></defs><g id="Layer_1-2"><g><path class="cls-3" d="M6.95,12.39h0c.22,0,.39,0,.55,0,3.57,0,7.13,0,10.7,0,.28,0,.47-.08,.64-.3,1.11-1.42,2.24-2.83,3.35-4.24,.07-.09,.13-.2,.25-.38H6.96v-1.63c-4.72,0-6.39,1.97-6.96,3.4v6.55c.57-1.43,2.24-3.39,6.95-3.4Z"/><path class="cls-1" d="M6.96,5.84h0c.2,0,.37,0,.53,0,3.76,0,7.53,0,11.29,0,.3,0,.49-.09,.67-.33,1.32-1.74,2.66-3.46,3.99-5.19,.07-.09,.13-.19,.21-.32H0V9.24c.57-1.43,2.24-3.39,6.96-3.4Z"/><path class="cls-2" d="M6.96,14.22h0v-1.84c-4.71,0-6.38,1.97-6.95,3.4v4.2c.1,0,.17,.02,.23,.02,3.28,0,6.57,0,9.85,0-1.39-.57-3.12-2.04-3.13-5.77Z"/><path class="cls-4" d="M6.96,14.22c0,3.73,1.73,5.21,3.13,5.77,2.97,0,5.95,0,8.92,0,.16,0,.37-.12,.48-.25,1.35-1.72,2.68-3.45,4.01-5.17,.06-.08,.11-.18,.21-.34H6.96Z"/></g></g></svg>