<?xml version="1.0" encoding="UTF-8"?>
<svg id="Layer_2" xmlns="http://www.w3.org/2000/svg" viewBox="0 0 85.33 30">
    <g id="Layer_1-2">
        <g>
        <path d="M65.33,15c-2.76,0-5,2.24-5,5s2.24,5,5,5,5-2.24,5-5-2.24-5-5-5h0Zm0,7.5c-1.38,0-2.5-1.12-2.5-2.5s1.12-2.5,2.5-2.5,2.5,1.12,2.5,2.5-1.12,2.5-2.5,2.5h0Z" />
        <path d="M20,15c-2.76,0-5,2.24-5,5s2.24,5,5,5,5-2.24,5-5-2.24-5-5-5h0Zm0,7.5c-1.38,0-2.5-1.12-2.5-2.5s1.12-2.5,2.5-2.5,2.5,1.12,2.5,2.5-1.12,2.5-2.5,2.5h0Z" />
        <path d="M82,17.49s-12.01-6.33-12.02-6.34c-1.39-.73-2.97-1.15-4.65-1.15h-16.42V1.25c0-.69-.56-1.25-1.25-1.25h-5c-2.63,0-5.26,.65-7.58,1.88l-13.83,7.3v-2.93c0-3.45-2.8-6.25-6.25-6.25H1.25C.56,0,0,.56,0,1.25v1.99c0,2.32,1.28,4.44,3.33,5.53l1.67,.88v11.61c0,.69,.56,1.25,1.25,1.25h4.07c1.11,4.31,5.03,7.5,9.68,7.5s8.57-3.19,9.68-7.5h10.82c2.63,0,5.25-.65,7.58-1.88l7.9-4.17c-.42,1.1-.65,2.3-.65,3.55,0,1.82,.49,3.53,1.35,5h-24.43c-.69,0-1.25,.56-1.25,1.25s.56,1.25,1.25,1.25h26.48c1.76,1.55,4.07,2.5,6.6,2.5s4.84-.95,6.6-2.5h12.15c.69,0,1.25-.56,1.25-1.25v-3.24c0-2.32-1.28-4.44-3.33-5.53h0Zm-35.58-7.49h-2.5V2.5h2.5v7.5ZM4.5,6.55c-1.23-.65-2-1.92-2-3.32v-.74H15c2.07,0,3.75,1.68,3.75,3.75v3.83c-3.16,.4-5.87,2.28-7.4,4.92h-3.85v-6.11c0-.46-.26-.89-.67-1.11l-2.33-1.23Zm3,13.45v-2.5h2.82c-.21,.8-.32,1.64-.32,2.5h-2.5Zm12.5,7.5c-4.14,0-7.5-3.36-7.5-7.5s3.36-7.5,7.5-7.5c4.14,0,7.5,3.37,7.5,7.5s-3.36,7.5-7.5,7.5h0Zm26.92-9.09c-1.97,1.04-4.19,1.59-6.42,1.59h-10.5c0-4.21-2.61-7.81-6.3-9.29l12.55-6.62c1.6-.85,3.37-1.37,5.17-1.53V11.25c0,.69,.56,1.25,1.25,1.25h15.45l-11.2,5.91Zm18.42,9.09c-4.14,0-7.5-3.36-7.5-7.5s3.36-7.5,7.5-7.5,7.5,3.36,7.5,7.5-3.36,7.5-7.5,7.5h0Zm17.5-2.5h-8.85c.85-1.47,1.35-3.18,1.35-5,0-1.25-.23-2.44-.65-3.55l6.15,3.25c1.23,.65,2,1.92,2,3.32v1.99Z" />
        </g>
    </g>
</svg>