<svg id="Layer_2" xmlns="http://www.w3.org/2000/svg" viewBox="0 0 21.09 24">
    <g id="Layer_1-2">
        <g>
        <path d="M4.92,9.84c-1.16,0-2.11,.95-2.11,2.11v5.72c0,1.16,.95,2.11,2.11,2.11s2.11-.95,2.11-2.11v-5.72c0-1.16-.95-2.11-2.11-2.11Z" />
        <path d="M1.47,11.36c-.85,.27-1.47,1.06-1.47,2v2.91c0,.94,.62,1.72,1.47,2-.03-.19-.06-.39-.06-.59v-5.72c0-.2,.03-.4,.06-.59Z" />
        <path d="M16.17,9.84c-1.16,0-2.11,.95-2.11,2.11v5.72c0,1.16,.95,2.11,2.11,2.11,.21,0,.41-.04,.6-.1-.26,.87-1.06,1.51-2.01,1.51h-2.24c-.29-.82-1.06-1.41-1.98-1.41-1.16,0-2.11,.95-2.11,2.11s.95,2.11,2.11,2.11c.92,0,1.69-.59,1.98-1.41h2.24c1.94,0,3.52-1.58,3.52-3.52v-7.12c0-1.16-.95-2.11-2.11-2.11Z" />
        <path d="M19.63,11.36c.03,.19,.06,.39,.06,.59v5.72c0,.2-.03,.4-.06,.59,.85-.27,1.47-1.06,1.47-2v-2.91c0-.94-.62-1.72-1.47-2Z" />
        <path d="M10.55,0C4.73,0,0,4.73,0,10.55v.02c.42-.32,.9-.55,1.44-.65C1.77,5.17,5.72,1.41,10.55,1.41s8.78,3.76,9.11,8.51c.53,.1,1.02,.34,1.44,.65v-.02C21.09,4.73,16.36,0,10.55,0Z" />
        </g>
    </g>
</svg>