<?xml version="1.0" encoding="UTF-8"?>
 <svg id="Layer_2" xmlns="http://www.w3.org/2000/svg" viewBox="0 0 21.37 24">
        <g id="Layer_1-2">
          <g>
            <path
              className="cls-1"
              d="M21.2,9c-.31-2.02-1.04-3.82-2.16-5.33-.69-.93-2.01-1.86-3.63-2.54-1.73-.73-3.68-1.13-5.5-1.13-2,0-3.78,.46-5.3,1.37C2.84,2.42,1.51,4.05,.63,6.21c-1.55,3.83,.19,7.9,.39,8.35,.05,.1,.12,.18,.22,.24l14.87,7.92c.07,.04,.15,.06,.24,.06,.09,0,.18-.03,.27-.08,1.52-.95,2.94-3.14,3.82-5.77,0,0,0-.02,0-.02,0,0,0,0,0,0,.25-.74,.45-1.51,.6-2.3,.36-1.9,.41-3.84,.14-5.59Zm-4.87,12.69L1.88,14c-.16-.39-.53-1.38-.74-2.66-.28-1.77-.14-3.37,.42-4.76,.79-1.95,1.99-3.42,3.56-4.36,1.36-.81,2.97-1.23,4.79-1.23,1.68,0,3.5,.37,5.11,1.05,1.46,.61,2.63,1.42,3.21,2.21,.76,1.03,1.32,2.2,1.67,3.49-.71-.1-1.9-.28-3.26-.54-2.92-.55-5.32-1.21-6.96-1.91,0,0-.01,0-.02,0-.29-.13-.62-.2-.96-.2-1.32,0-2.39,1.07-2.4,2.39h0c0,.15,0,2.95,.71,4.41,.25,.51,1.25,1.31,6.78,3.31,2.29,.83,4.55,1.56,5.53,1.87-.76,2.06-1.85,3.78-3,4.62Z"
            />
            <path
              className="cls-1"
              d="M15.37,23.06L.91,15.35c-.24-.13-.55-.04-.68,.21-.13,.24-.04,.55,.21,.68l14.46,7.71c.08,.04,.16,.06,.24,.06,.18,0,.35-.1,.44-.27,.13-.24,.04-.55-.21-.68Z"
            />
          </g>
        </g>
      </svg>