<?xml version="1.0" encoding="UTF-8"?><svg id="Layer_2" xmlns="http://www.w3.org/2000/svg" xmlns:xlink="http://www.w3.org/1999/xlink" viewBox="0 0 22.1 20"><defs><style>.cls-1{fill:url(#linear-gradient-2);}.cls-2{fill:url(#linear-gradient);}</style><linearGradient id="linear-gradient" x1="5.01" y1="-9.93" x2="5.01" y2="22.76" gradientUnits="userSpaceOnUse"><stop offset=".29" stop-color="#efbe17"/><stop offset=".31" stop-color="#ecba19"/><stop offset=".46" stop-color="#e3a922"/><stop offset=".57" stop-color="#e0a426"/><stop offset=".66" stop-color="#ba8c1d"/><stop offset=".75" stop-color="#997816"/><stop offset=".85" stop-color="#816911"/><stop offset=".93" stop-color="#72610e"/><stop offset="1" stop-color="#6e5e0d"/></linearGradient><linearGradient id="linear-gradient-2" x1="21.28" y1="17.12" x2="3.15" y2="17.12" gradientUnits="userSpaceOnUse"><stop offset="0" stop-color="#efbe17"/><stop offset=".86" stop-color="#6e5e0d"/></linearGradient></defs><g id="Layer_1-2"><g><path class="cls-2" d="M6.91,14.23h0V0H0V19.98c.12,0,.19,.02,.26,.02,3.26,0,6.51,0,9.77,0-1.38-.58-3.11-2.07-3.11-5.77Z"/><path class="cls-1" d="M6.91,14.23c0,3.7,1.73,5.19,3.11,5.77,2.45,0,4.9,0,7.35,0,.16,0,.38-.11,.48-.23,1.37-1.73,2.73-3.48,4.08-5.23,.05-.07,.08-.16,.15-.3H6.91Z"/></g></g></svg>