<?xml version="1.0" encoding="UTF-8"?>
<svg xmlns="http://www.w3.org/2000/svg" xmlns:xlink="http://www.w3.org/1999/xlink" width="60px" height="60px" viewBox="0 0 60 60" version="1.1">
<g id="surface1">
<path style=" stroke:none;fill-rule:nonzero;fill:rgb(255,255,255);fill-opacity:1;" d="M 45 0 L 15 0 C 11.699219 0 9 2.699219 9 6 L 9 54 C 9 57.300781 11.699219 60 15 60 L 45 60 C 48.300781 60 51 57.300781 51 54 L 51 6 C 51 2.699219 48.300781 0 45 0 Z M 30 6 C 33.300781 6 36 8.699219 36 12 C 36 15.300781 33.300781 18 30 18 C 26.699219 18 24 15.300781 24 12 C 24 8.699219 26.699219 6 30 6 Z M 30 54 C 21.601562 54 15 47.398438 15 39 C 15 30.601562 21.601562 24 30 24 C 38.398438 24 45 30.601562 45 39 C 45 47.398438 38.398438 54 30 54 Z M 30 30 C 24.898438 30 21 33.898438 21 39 C 21 44.101562 24.898438 48 30 48 C 35.101562 48 39 44.101562 39 39 C 39 33.898438 35.101562 30 30 30 Z M 30 30 "/>
</g>
</svg>
