<?xml version="1.0" encoding="UTF-8"?>
<svg id="Layer_2" xmlns="http://www.w3.org/2000/svg" viewBox="0 0 28.16 24">
        <g id="Layer_1-2">
          <path
            className="cls-1"
            d="M22.55,16.18s0,0,0,0c.35-.57,.65-1.17,.9-1.8,.29,.1,.56,.14,.82,.14,2.51,0,3.88-4.07,3.88-4.07-.27-.02-.52-.03-.76-.03-1.4,0-2.38,.35-3.06,.83,.12-.77,.19-1.57,.2-2.38,2.78-.44,2.08-5,2.08-5-1.17,.49-1.91,1.08-2.37,1.69-.16-.86-.33-1.48-.39-1.69C24.52,1.45,20.58,0,20.58,0c-.35,3.13,1.26,4.16,2.22,4.5,.09,.3,.38,1.39,.51,2.9-1.1-1.24-2.78-2.01-2.78-2.01-.82,4.23,1.62,5.47,2.63,5.8-.03,.15-.05,.3-.08,.45-.18,.89-.45,1.74-.8,2.54-.38-1.75-1.65-3.37-1.65-3.37-2.72,3.43-1.21,5.73-.41,6.57-.62,.69-1.33,1.32-2.13,1.9,.42-1.88-.34-4.19-.34-4.19-3.55,2.21-3.12,4.74-2.67,5.9-.32,.14-.65,.28-.99,.41-.41-.16-.8-.32-1.18-.5,.34-1.21,.47-3.71-3.19-5.57,0,0-.44,1.87-.12,3.57-.6-.47-1.15-.98-1.64-1.53,.8-.84,2.3-3.14-.41-6.57,0,0-1.26,1.63-1.65,3.37-.35-.79-.61-1.63-.79-2.51-.03-.16-.06-.32-.09-.48,1.01-.33,3.44-1.58,2.63-5.8,0,0-1.67,.77-2.78,2.01,.12-1.51,.42-2.6,.51-2.9,.96-.34,2.56-1.37,2.22-4.5,0,0-3.95,1.45-3.26,3.87-.06,.21-.24,.83-.39,1.68-.46-.61-1.2-1.2-2.37-1.69,0,0-.71,4.56,2.08,5,0,.81,.07,1.61,.2,2.38-.68-.48-1.66-.83-3.06-.83-.24,0-.5,.01-.76,.03,0,0,1.37,4.07,3.88,4.07,.26,0,.53-.04,.82-.14,.26,.62,.56,1.22,.9,1.8,0,0,0,0,0,0-.39-.1-.83-.16-1.31-.16-.87,0-1.89,.18-3.08,.64,0,0,2.48,3.57,5.16,3.57,.67,0,1.36-.23,2.02-.8,1.14,.98,2.49,1.82,4.02,2.53-1.17,.35-2.44,.65-3.79,.87l.19,1.16c1.93-.32,3.68-.77,5.26-1.35,1.58,.58,3.34,1.03,5.26,1.35l.19-1.16c-1.35-.23-2.62-.52-3.79-.87,1.54-.7,2.88-1.55,4.02-2.53,.66,.57,1.35,.8,2.02,.8,2.67,0,5.16-3.57,5.16-3.57-1.2-.46-2.22-.64-3.08-.64-.48,0-.92,.06-1.31,.16Z"
          />
        </g>
      </svg>