<?xml version="1.0" encoding="UTF-8"?>
<svg id="Layer_2" xmlns="http://www.w3.org/2000/svg" viewBox="0 0 24 24">
        <defs></defs>
        <g id="Layer_1-2">
          <path
            className="cls-1"
            d="M22.68,9.39l-1.88-.24c-.15-.48-.34-.94-.57-1.37l1.16-1.5c.47-.6,.42-1.46-.12-1.98l-1.57-1.58c-.53-.54-1.38-.6-1.98-.13l-1.49,1.16c-.44-.22-.9-.41-1.38-.57l-.24-1.88c-.09-.75-.73-1.32-1.49-1.32h-2.24c-.76,0-1.4,.57-1.49,1.32l-.24,1.88c-.48,.16-.94,.35-1.38,.57l-1.49-1.16c-.6-.47-1.46-.42-1.98,.12l-1.57,1.57c-.54,.53-.6,1.38-.13,1.99l1.16,1.49c-.22,.44-.41,.9-.57,1.37l-1.88,.24c-.75,.09-1.32,.73-1.32,1.49v2.24c0,.76,.57,1.4,1.32,1.49l1.88,.24c.15,.48,.34,.94,.57,1.37l-1.16,1.5c-.47,.6-.42,1.46,.12,1.98l1.57,1.57c.53,.54,1.38,.6,1.99,.13l1.49-1.16c.44,.22,.9,.41,1.37,.57l.24,1.88c.09,.75,.73,1.32,1.49,1.32h2.24c.76,0,1.4-.57,1.49-1.32l.24-1.88c.48-.15,.94-.34,1.37-.57l1.49,1.16c.6,.47,1.46,.42,1.98-.12l1.57-1.57c.54-.53,.6-1.38,.13-1.99l-1.16-1.49c.22-.44,.41-.9,.57-1.37l1.88-.24c.75-.09,1.32-.73,1.32-1.49v-2.24c0-.76-.57-1.4-1.32-1.49Zm-10.68,7.61c-2.76,0-5-2.24-5-5s2.24-5,5-5,5,2.24,5,5-2.24,5-5,5Z"
          />
        </g>
      </svg>