  <svg id="Layer_2" xmlns="http://www.w3.org/2000/svg" viewBox="0 0 27.42 24">
        <g id="Layer_1-2">
          <g>
            <path
              className="cls-1"
              d="M27.42,8.34c-.19,1.37-.9,2.38-2.13,3.03-.16,.09-.2,.19-.2,.36,0,3.8,0,7.6,0,11.4,0,.63-.25,.87-.87,.87-7,0-14,0-21,0-.63,0-.88-.24-.88-.87,0-3.8,0-7.6,0-11.4,0-.18-.04-.28-.22-.37C.99,10.76,.3,9.82,.05,8.56c-.1-.47-.06-.91,.2-1.36C1.54,4.99,2.79,2.77,4.04,.54,4.26,.15,4.54,0,4.97,0c1.26,.01,2.52,0,3.78,0,4.56,0,9.12,0,13.68,0,.41,0,.79,.22,.99,.58,1.23,2.2,2.48,4.39,3.73,6.58,.2,.36,.3,.77,.27,1.18h0ZM6.07,22.64c0-.15,0-.26,0-.38,0-2.24,.01-4.47,0-6.71-.01-1.42,.96-2.38,2.06-2.45,.84-.05,1.7,0,2.54,0,.09,0,.18,.03,.26,.05,1.07,.31,1.71,1.17,1.71,2.32,0,2.28,0,4.56,0,6.84,0,.1,0,.21,0,.31h11.08V11.81c-1.47,.03-2.61-.56-3.48-1.73-.81,1.11-1.88,1.71-3.25,1.72-1.37,0-2.45-.61-3.26-1.7-1.78,2.46-5.14,2.07-6.55-.01-.86,1.17-2.02,1.75-3.49,1.72v10.83h2.37ZM1.97,6.96H25.47c-.03-.06-.04-.09-.06-.12-1.01-1.77-2.01-3.54-3.01-5.31-.09-.16-.21-.16-.36-.16-5.55,0-11.1,0-16.66,0-.2,0-.3,.06-.4,.23-.96,1.71-1.94,3.42-2.91,5.13-.04,.07-.07,.14-.12,.24Zm9.32,15.67c0-.06,.01-.11,.01-.17,0-2.35,0-4.7,0-7.05,0-.59-.4-.99-1-1-.57,0-1.14,0-1.72,0-.81,0-1.16,.35-1.16,1.16,0,2.25,0,4.5,0,6.75v.3h3.86Z"
            />
            <path
              className="cls-1"
              d="M17.63,19.64c-.58,0-1.16,0-1.74,0-1.2-.01-1.96-.77-1.96-1.96,0-.88,0-1.75,0-2.63,0-1.2,.78-1.97,1.99-1.97,1.15,0,2.31,0,3.46,0,1.2,0,1.97,.77,1.98,1.98,0,.87,0,1.73,0,2.6,0,1.21-.77,1.97-1.98,1.98-.58,0-1.16,0-1.74,0Zm0-1.35c.59,0,1.18,0,1.77,0,.43,0,.61-.18,.61-.6,0-.88,0-1.77,0-2.65,0-.43-.19-.61-.63-.61-1.16,0-2.32,0-3.48,0-.44,0-.62,.19-.62,.62,0,.88,0,1.75,0,2.63,0,.45,.18,.62,.64,.62,.57,0,1.14,0,1.71,0Z"
            />
          </g>
        </g>
      </svg>