<svg id="Layer_2" xmlns="http://www.w3.org/2000/svg" viewBox="0 0 30.2 23.99">
    <g id="Layer_1-2">
        <path d="M15.11,21.41c0,.53-.31,1.02-.79,1.24-.19,.09-.39,.13-.58,.13-.31,0-.62-.11-.87-.32l-7.5-6.21H1.37c-.76,0-1.37-.62-1.37-1.37v-5.46c0-.76,.61-1.37,1.37-1.37h3.99L12.86,1.83c.41-.34,.98-.41,1.46-.18,.48,.23,.79,.71,.79,1.24V21.41Zm5.27-2.14s-.07,0-.1,0c-.36,0-.71-.14-.97-.4l-.18-.18c-.48-.48-.54-1.24-.13-1.79,1.03-1.38,1.57-3.03,1.57-4.75,0-1.85-.62-3.59-1.78-5.02-.44-.54-.4-1.34,.09-1.83l.18-.18c.27-.27,.64-.42,1.04-.4,.39,.02,.75,.2,.99,.5,1.62,1.98,2.47,4.38,2.47,6.94,0,2.39-.76,4.66-2.18,6.57-.24,.32-.6,.52-1,.55h0Zm5.67,4.24c-.25,.29-.61,.47-.99,.48-.02,0-.04,0-.06,0-.36,0-.71-.14-.97-.4l-.18-.18c-.5-.5-.54-1.31-.08-1.85,2.21-2.63,3.43-5.97,3.43-9.41s-1.3-7.02-3.67-9.69c-.48-.54-.46-1.36,.05-1.88l.18-.18C24.03,.14,24.38-.01,24.78,0c.38,.01,.73,.18,.99,.46,2.86,3.22,4.44,7.37,4.44,11.69,0,4.15-1.47,8.18-4.15,11.36h0Z" />
    </g>
</svg>