<?xml version="1.0" encoding="UTF-8"?><svg id="Layer_2" xmlns="http://www.w3.org/2000/svg" xmlns:xlink="http://www.w3.org/1999/xlink" viewBox="0 0 27.66 20"><defs><style>.cls-1{fill:url(#linear-gradient-2);}.cls-2{fill:url(#linear-gradient-3);}.cls-3{fill:url(#linear-gradient);}</style><linearGradient id="linear-gradient" x1="25.51" y1="13.88" x2="1.31" y2="5.48" gradientUnits="userSpaceOnUse"><stop offset="0" stop-color="#14efb1"/><stop offset=".86" stop-color="#0c6e66"/></linearGradient><linearGradient id="linear-gradient-2" x1="17.69" y1=".03" x2="-2.58" y2="14.82" gradientUnits="userSpaceOnUse"><stop offset="0" stop-color="#14efb1"/><stop offset=".5" stop-color="#23e069"/><stop offset=".86" stop-color="#0c6e66"/></linearGradient><linearGradient id="linear-gradient-3" x1="5.72" y1="25.29" x2="22.85" y2="8.93" xlink:href="#linear-gradient"/></defs><g id="Layer_1-2"><g><path class="cls-3" d="M27.4,15.6c.02-.1,.05-.2,.07-.31,.12-.67,.19-1.36,.19-2.04,0-2.42-1.17-4.04-3.46-4.87-1.26-.46-2.57-.6-3.9-.61-3.8-.01-7.61,0-11.41-.01-.3,0-.61-.03-.9-.1-.45-.1-.64-.44-.64-.88,0-.45,.22-.76,.67-.85,.19-.04,.39-.06,.58-.08-4.44,0-5.98,2.37-6.5,4.36,.53,.52,1.19,.95,1.99,1.27,1.4,.57,2.86,.69,4.34,.69,3.59,0,7.18,0,10.77,0,.15,0,.29,0,.44,0,.74-.07,5.5-.44,7.75,3.41Z"/><path class="cls-1" d="M8.6,5.86c.12,0,.25-.02,.37-.02,4.41,0,8.83,0,13.24,0,.3,0,.5-.09,.68-.33,1.28-1.7,2.58-3.38,3.88-5.07,.09-.12,.17-.24,.3-.43-.18,0-.26,0-.33,0-5.95,0-11.9-.02-17.85,.02-1.07,0-2.16,.14-3.21,.36C2.33,1.09,.7,3.01,.63,6.23c-.04,1.64,.46,2.99,1.47,3.98,.52-1.99,2.07-4.35,6.5-4.36Z"/><path class="cls-2" d="M19.65,12.19c.16,0,.31,.02,.47,.05,.56,.1,.84,.45,.84,.97,0,.53-.27,.87-.82,.98-.27,.05-.54,.05-.82,.05-4.81,0-9.62,0-14.43,0-.32,0-.52,.09-.72,.35-1.29,1.68-2.59,3.34-3.89,5.01-.09,.11-.16,.22-.28,.38,.18,0,.27,.02,.36,.02,6.48,0,12.97,.02,19.45-.02,1.12,0,2.26-.14,3.34-.4,2.18-.52,3.73-1.76,4.25-3.98-2.25-3.85-7.01-3.48-7.75-3.41Z"/></g></g></svg>