<?xml version="1.0" encoding="UTF-8"?>
  <svg id="Layer_2" xmlns="http://www.w3.org/2000/svg" viewBox="0 0 120.23 120.23">
        <g id="Layer_1-2">
          <g>
            <g>
              <path
                className="cls-1"
                d="M120.12,60.12c0,33.14-26.86,60-60,60S.12,93.25,.12,60.12,26.98,.12,60.12,.12c33.12,.04,59.96,26.88,60,60Zm-4,0c0-30.93-25.07-56-56-56S4.12,29.19,4.12,60.12s25.07,56,56,56c30.91-.04,55.96-25.09,56-56Z"
              />
              <path
                className="cls-1"
                d="M110.12,60.12c0,27.61-22.39,50-50,50S10.12,87.73,10.12,60.12,32.5,10.12,60.12,10.12c27.6,.03,49.97,22.4,50,50Zm-11.8,25.61c5.1-7.57,7.81-16.49,7.8-25.61,0-1.54-.08-3.07-.22-4.57l-1.68,.9c-1.06,.57-2.06,1.24-3,1.99-8.33,6.73-9.63,18.95-2.9,27.28Zm3.99-32.8l2.96-1.59c-1.02-5.22-2.93-10.23-5.67-14.8-26.22-3.22-52.74-3.22-78.96,0-2.74,4.57-4.66,9.57-5.67,14.8l2.32,1.25c1.51,.81,2.93,1.79,4.23,2.91,9.73,8.43,10.79,23.15,2.36,32.89,2.75,3.52,6,6.62,9.63,9.21,.21-.01,.43,0,.64,.06l.27-.18c15.49-10.65,35.93-10.65,51.42,0l.54,.38c3.56-2.48,6.75-5.45,9.48-8.81-1.18-1.34-2.21-2.82-3.06-4.39-6.13-11.39-1.87-25.59,9.52-31.72Zm-5.67-20.73c-2.49-3.26-5.41-6.18-8.67-8.67-20.17-15.38-48.99-11.5-64.37,8.67,24.27-2.72,48.77-2.72,73.05,0ZM60.12,106.12c7.89,0,15.66-2.03,22.53-5.92-13.7-8.91-31.36-8.91-45.06,0,6.87,3.88,14.63,5.92,22.53,5.92Zm-36.86-23.8c5.06-9.41,1.54-21.14-7.87-26.2l-1.04-.57c-.15,1.5-.23,3.03-.23,4.57,0,8.85,2.55,17.51,7.36,24.93,.67-.86,1.27-1.77,1.78-2.73Z"
              />
              <path
                className="cls-1"
                d="M94.12,40.12c1.11,0,2,.9,2,2s-.9,2-2,2h-4c-1.11,0-2-.9-2-2s.9-2,2-2h4Z"
              />
              <path
                className="cls-1"
                d="M94.12,48.12c1.11,0,2,.9,2,2s-.9,2-2,2h-4c-1.11,0-2-.9-2-2s.9-2,2-2h4Z"
              />
              <path
                className="cls-1"
                d="M71.93,58.09c-.86-5.01-4.78-8.93-9.79-9.8,.12,5.36,4.43,9.67,9.79,9.8Zm-23.63,4.05c.86,5.01,4.78,8.93,9.79,9.8-.12-5.36-4.44-9.68-9.79-9.8Zm11.82-18.02c8.84,0,16,7.16,16,16s-7.16,16-16,16-16-7.16-16-16c0-8.83,7.17-15.99,16-16Zm2.02,27.82c5.01-.86,8.94-4.79,9.8-9.8-5.36,.12-9.68,4.44-9.8,9.8Zm2.83-11.81c-1.99-1.2-3.66-2.86-4.86-4.86-1.2,1.99-2.86,3.66-4.86,4.86,1.99,1.2,3.66,2.86,4.86,4.86,1.2-1.99,2.86-3.66,4.86-4.86Zm-16.68-2.02c5.36-.12,9.68-4.44,9.8-9.8-5.01,.86-8.94,4.79-9.8,9.8Z"
              />
              <path
                className="cls-1"
                d="M34.12,40.12c1.11,0,2,.9,2,2s-.9,2-2,2h-2c-1.1,0-2-.9-2-2s.9-2,2-2h2Z"
              />
              <path
                className="cls-1"
                d="M34.12,48.12c1.11,0,2,.9,2,2s-.9,2-2,2h-2c-1.1,0-2-.9-2-2s.9-2,2-2h2Z"
              />
              <path
                className="cls-1"
                d="M26.12,40.12c1.1,0,2,.9,2,2s-.9,2-2,2h-2c-1.1,0-2-.9-2-2s.9-2,2-2h2Z"
              />
              <path
                className="cls-1"
                d="M26.12,48.12c1.1,0,2,.9,2,2s-.9,2-2,2h-2c-1.1,0-2-.9-2-2s.9-2,2-2h2Z"
              />
            </g>
            <g>
              <path
                className="cls-2"
                fill="none"
                d="M60.12,.12C26.98,.12,.12,26.98,.12,60.12s26.86,60,60,60,60-26.86,60-60C120.08,27,93.24,.15,60.12,.12Z"
              />
              <path
                className="cls-2"
                fill="none"
                d="M60.12,116.12c-30.93,0-56-25.07-56-56S29.19,4.12,60.12,4.12s56,25.07,56,56c-.04,30.91-25.09,55.96-56,56Z"
              />
              <path
                className="cls-2"
                fill="none"
                d="M60.12,10.12c-27.61,0-50,22.39-50,50s22.39,50,50,50,50-22.39,50-50c-.03-27.6-22.4-49.97-50-50Z"
              />
              <path
                className="cls-2"
                fill="none"
                d="M14.12,60.12c0-1.54,.08-3.07,.23-4.57l1.04,.57c9.41,5.06,12.93,16.79,7.87,26.2-.51,.96-1.11,1.87-1.78,2.73-4.81-7.42-7.37-16.08-7.36-24.93Z"
              />
              <path
                className="cls-2"
                fill="none"
                d="M60.12,106.12c-7.9,0-15.66-2.03-22.53-5.92,13.7-8.91,31.36-8.91,45.06,0-6.87,3.88-14.64,5.92-22.53,5.92Z"
              />
              <path
                className="cls-2"
                fill="none"
                d="M106.12,60.12c.01,9.12-2.7,18.04-7.8,25.61-6.73-8.33-5.44-20.55,2.9-27.28,.94-.76,1.94-1.43,3-1.99l1.68-.9c.14,1.5,.22,3.03,.22,4.57Z"
              />
              <path
                className="cls-2"
                fill="none"
                d="M105.27,51.34l-2.96,1.59c-11.39,6.13-15.65,20.34-9.52,31.72,.85,1.57,1.88,3.05,3.06,4.39-2.73,3.36-5.93,6.33-9.48,8.81l-.54-.38c-15.49-10.65-35.93-10.65-51.42,0l-.27,.18c-.21-.05-.42-.07-.64-.06-3.64-2.59-6.88-5.69-9.63-9.21,8.43-9.74,7.37-24.46-2.36-32.89-1.3-1.12-2.72-2.1-4.23-2.91l-2.32-1.25c1.01-5.22,2.93-10.23,5.67-14.8,26.22-3.22,52.73-3.22,78.96,0,2.74,4.56,4.65,9.57,5.67,14.8Z"
              />
              <path
                className="cls-2"
                fill="none"
                d="M23.59,32.2c15.38-20.17,44.2-24.05,64.37-8.67,3.26,2.49,6.18,5.41,8.67,8.67-24.27-2.72-48.77-2.72-73.05,0Z"
              />
              <path
                className="cls-2"
                fill="none"
                d="M44.12,60.12c0,8.84,7.16,16,16,16s16-7.16,16-16-7.16-16-16-16c-8.83,0-15.99,7.17-16,16Z"
              />
              <path
                className="cls-2"
                fill="none"
                d="M58.09,48.3c-.12,5.36-4.44,9.68-9.8,9.8,.86-5.01,4.79-8.94,9.8-9.8Z"
              />
              <path
                className="cls-2"
                fill="none"
                d="M48.3,62.14c5.36,.12,9.67,4.44,9.79,9.8-5.01-.86-8.93-4.79-9.79-9.8Z"
              />
              <path className="cls-2" fill="none" d="M48.3,62.14h0" />
              <path
                className="cls-2"
                fill="none"
                d="M55.26,60.12c1.99-1.2,3.66-2.86,4.86-4.86,1.2,1.99,2.86,3.66,4.86,4.86-1.99,1.2-3.66,2.86-4.86,4.86-1.2-1.99-2.86-3.66-4.86-4.86Z"
              />
              <path
                className="cls-2"
                fill="none"
                d="M62.14,71.93c.12-5.36,4.44-9.68,9.8-9.8-.86,5.01-4.79,8.94-9.8,9.8Z"
              />
              <path
                className="cls-2"
                fill="none"
                d="M71.93,58.09c-5.36-.13-9.67-4.44-9.79-9.8,5.01,.86,8.93,4.79,9.79,9.8Z"
              />
              <line className="cls-2" fill="none" x1="71.93" y1="58.09" x2="71.94" y2="58.09" />
              <path
                className="cls-2"
                fill="none"
                d="M26.12,40.12h-2c-1.1,0-2,.9-2,2s.9,2,2,2h2c1.1,0,2-.9,2-2s-.9-2-2-2Z"
              />
              <path
                className="cls-2"
                fill="none"
                d="M26.12,48.12h-2c-1.1,0-2,.9-2,2s.9,2,2,2h2c1.1,0,2-.9,2-2s-.9-2-2-2Z"
              />
              <path
                className="cls-2"
                fill="none"
                d="M90.12,44.12h4c1.11,0,2-.9,2-2s-.9-2-2-2h-4c-1.1,0-2,.9-2,2s.89,2,2,2Z"
              />
              <path
                className="cls-2"
                fill="none"
                d="M90.12,52.12h4c1.11,0,2-.9,2-2s-.9-2-2-2h-4c-1.1,0-2,.9-2,2s.89,2,2,2Z"
              />
              <path
                className="cls-2"
                fill="none"
                d="M34.12,40.12h-2c-1.1,0-2,.9-2,2s.9,2,2,2h2c1.11,0,2-.9,2-2s-.9-2-2-2Z"
              />
              <path
                className="cls-2"
                fill="none"
                d="M34.12,48.12h-2c-1.1,0-2,.9-2,2s.9,2,2,2h2c1.11,0,2-.9,2-2s-.9-2-2-2Z"
              />
            </g>
          </g>
        </g>
      </svg>